<svg width="1280" height="709" viewBox="0 0 1280 709" fill="none" xmlns="http://www.w3.org/2000/svg">
<path d="M668.476 -13L-18 662.134L1281 466.177L-18 126.824L1281 103.35L-18 378.915L1281 705L955.612 -13L798.529 0.420316M798.529 0.420316L-18 70.1798C415 240.962 1281 582.935 1281 584.568C1281 586.201 415 554.29 -18 538.13L273.217 -13L176.314 705L798.529 0.420316ZM437.951 -13L705.197 705L1106.58 -13L1281 336.049L-18 248.787L1281 25.7832L428.26 702.959L48.3015 -13L955.612 702.959L1281 192.653" stroke="#AA0404" stroke-width="1.96036"/>
</svg>
